<?xml version="1.0" standalone="no"?>
<!DOCTYPE svg PUBLIC "-//W3C//DTD SVG 20010904//EN"
 "http://www.w3.org/TR/2001/REC-SVG-20010904/DTD/svg10.dtd">
<svg version="1.0" xmlns="http://www.w3.org/2000/svg"
 width="512.000000pt" height="512.000000pt" viewBox="0 0 512.000000 512.000000"
 preserveAspectRatio="xMidYMid meet">
<metadata>
Created by potrace 1.16, written by Peter Selinger 2001-2019
</metadata>
<g transform="translate(0.000000,512.000000) scale(0.100000,-0.100000)"
fill="#000000" stroke="none">
<path d="M2054 4786 c-366 -83 -632 -387 -669 -763 l-7 -73 -159 0 c-183 0
-237 -9 -338 -57 -130 -62 -237 -192 -276 -338 -23 -87 -335 -2608 -335 -2707
0 -155 46 -266 154 -373 78 -77 162 -125 256 -145 40 -8 367 -10 1204 -8
l1150 3 -44 29 c-67 44 -217 193 -280 277 -67 89 -147 243 -183 349 -49 144
-62 231 -62 415 1 150 4 183 28 278 61 246 173 444 347 617 179 177 416 302
665 351 78 15 323 19 426 6 l66 -8 -58 453 c-62 491 -68 519 -140 628 -52 77
-117 132 -204 174 -97 47 -152 56 -334 56 l-159 0 -7 73 c-35 347 -256 627
-585 738 -87 30 -107 33 -245 35 -102 3 -169 -1 -211 -10z m338 -225 c91 -24
153 -54 234 -114 137 -104 244 -301 244 -451 l0 -46 -630 0 -630 0 0 46 c0
103 60 252 141 352 49 60 139 131 212 169 123 62 292 79 429 44z m-792 -928
c0 -180 -4 -323 -10 -345 -28 -98 -155 -106 -191 -11 -5 13 -9 168 -9 344 l0
319 105 0 105 0 0 -307z m1490 -12 c0 -176 -4 -331 -9 -344 -36 -95 -163 -87
-191 11 -6 22 -10 165 -10 345 l0 307 105 0 105 0 0 -319z"/>
<path d="M3590 2450 c-229 -32 -448 -142 -613 -305 -308 -307 -399 -771 -230
-1175 135 -322 426 -560 773 -632 129 -27 365 -21 485 12 377 103 664 390 765
765 28 102 38 330 20 443 -69 435 -406 788 -834 877 -97 20 -278 27 -366 15z
m184 -655 c51 -25 59 -48 64 -182 l4 -123 109 0 c59 0 119 -4 132 -9 95 -36
87 -163 -11 -191 -20 -5 -81 -10 -134 -10 l-98 0 0 -97 c0 -54 -5 -115 -10
-135 -28 -98 -155 -106 -191 -11 -5 13 -9 74 -9 134 l0 109 -99 0 c-123 0
-154 6 -185 37 -33 33 -41 74 -21 112 25 50 59 61 190 61 l115 0 0 115 c0 129
11 164 58 189 35 19 47 19 86 1z"/>
</g>
</svg>
