<?xml version="1.0" standalone="no"?>
<!DOCTYPE svg PUBLIC "-//W3C//DTD SVG 20010904//EN"
 "http://www.w3.org/TR/2001/REC-SVG-20010904/DTD/svg10.dtd">
<svg version="1.0" xmlns="http://www.w3.org/2000/svg"
 width="512.000000pt" height="512.000000pt" viewBox="0 0 512.000000 512.000000"
 preserveAspectRatio="xMidYMid meet">
<metadata>
Created by potrace 1.16, written by Peter Selinger 2001-2019
</metadata>
<g transform="translate(0.000000,512.000000) scale(0.100000,-0.100000)"
fill="#000000" stroke="none">
<path d="M3520 2720 l0 -640 -1280 0 -1280 0 0 -253 c0 -242 1 -255 23 -297
16 -33 34 -51 67 -67 43 -22 54 -23 310 -23 l265 0 25 -57 c29 -68 124 -170
190 -203 162 -82 318 -82 480 0 66 33 161 135 190 203 l25 57 665 0 665 0 25
-57 c29 -68 124 -170 190 -203 87 -44 149 -60 240 -60 91 0 153 16 240 60 66
33 161 135 190 203 l25 57 120 0 c135 0 168 12 205 72 19 32 20 52 20 488 l0
455 -258 430 c-195 325 -266 435 -291 452 l-34 23 -508 0 -509 0 0 -640z
m1060 10 c102 -171 187 -315 188 -320 2 -7 -160 -10 -462 -10 l-466 0 0 320 0
320 278 0 277 -1 185 -309z m-2419 -993 c106 -71 106 -203 0 -274 -98 -66
-241 15 -241 137 0 87 73 160 160 160 32 0 58 -7 81 -23z m2240 0 c52 -35 79
-82 79 -137 0 -32 -7 -58 -23 -81 -71 -106 -203 -106 -274 0 -66 98 15 241
137 241 32 0 58 -7 81 -23z"/>
</g>
</svg>
