<?xml version="1.0" standalone="no"?>
<!DOCTYPE svg PUBLIC "-//W3C//DTD SVG 20010904//EN"
 "http://www.w3.org/TR/2001/REC-SVG-20010904/DTD/svg10.dtd">
<svg version="1.0" xmlns="http://www.w3.org/2000/svg"
 width="512.000000pt" height="512.000000pt" viewBox="0 0 512.000000 512.000000"
 preserveAspectRatio="xMidYMid meet">
<metadata>
Created by potrace 1.16, written by Peter Selinger 2001-2019
</metadata>
<g transform="translate(0.000000,512.000000) scale(0.100000,-0.100000)"
fill="#000000" stroke="none">
<path d="M2300 5113 c-345 -43 -600 -117 -885 -258 -505 -249 -887 -629 -1134
-1125 -138 -279 -212 -529 -252 -855 -14 -108 -17 -477 -5 -537 l7 -38 323 0
322 0 -9 73 c-14 112 -2 394 22 523 155 829 778 1426 1614 1548 539 79 1152
-111 1543 -477 l59 -56 -295 -295 -295 -296 773 0 772 0 0 772 0 773 -242
-242 -243 -242 -58 55 c-301 282 -713 506 -1117 609 -214 54 -328 67 -605 70
-143 2 -276 1 -295 -2z"/>
<path d="M4451 2763 c13 -101 10 -328 -6 -445 -58 -439 -253 -831 -562 -1129
-571 -551 -1435 -686 -2158 -339 -169 81 -384 229 -480 329 l-29 32 294 294
295 295 -773 0 -772 0 0 -772 0 -773 243 242 242 242 65 -61 c367 -342 816
-562 1324 -649 173 -30 530 -37 716 -15 465 57 915 244 1283 533 114 89 397
378 480 490 269 363 421 747 478 1208 13 109 17 477 5 538 l-7 37 -322 0 -323
0 7 -57z"/>
</g>
</svg>
