<?xml version="1.0" standalone="no"?>
<!DOCTYPE svg PUBLIC "-//W3C//DTD SVG 20010904//EN"
 "http://www.w3.org/TR/2001/REC-SVG-20010904/DTD/svg10.dtd">
<svg version="1.0" xmlns="http://www.w3.org/2000/svg"
 width="512.000000pt" height="512.000000pt" viewBox="0 0 512.000000 512.000000"
 preserveAspectRatio="xMidYMid meet">
<metadata>
Created by potrace 1.16, written by Peter Selinger 2001-2019
</metadata>
<g transform="translate(0.000000,512.000000) scale(0.100000,-0.100000)"
fill="#000000" stroke="none">
<path d="M2925 5100 c-21 -14 -303 -453 -948 -1477 l-917 -1457 0 -56 c0 -62
20 -100 66 -131 28 -18 59 -19 652 -19 447 0 622 -3 622 -11 0 -6 -99 -404
-220 -884 -139 -550 -220 -890 -220 -921 0 -55 22 -95 66 -125 38 -25 125 -26
166 -2 34 21 -40 -95 1047 1633 l821 1304 0 56 c0 62 -20 100 -66 131 -28 18
-59 19 -651 19 -448 0 -623 3 -623 11 0 6 99 404 220 884 139 550 220 890 220
921 0 55 -22 95 -66 125 -40 26 -129 26 -169 -1z"/>
</g>
</svg>
